<?xml version="1.0" encoding="utf-8"?>
<svg viewBox="45.241 33.5306 26.014 30.6394" xmlns="http://www.w3.org/2000/svg">
  <path d="M 49.05 52.848 C 49.05 54.078 48.193 55.085 47.146 55.085 C 46.099 55.085 45.241 54.079 45.241 52.848 L 45.241 45.527 C 45.241 44.297 46.098 43.29 47.146 43.29 C 48.194 43.29 49.05 44.297 49.05 45.527 L 49.05 52.848 Z M 71.255 52.848 C 71.255 54.078 70.398 55.085 69.35 55.085 C 68.302 55.085 67.445 54.079 67.445 52.848 L 67.445 45.527 C 67.445 44.297 68.302 43.29 69.35 43.29 C 70.398 43.29 71.255 44.297 71.255 45.527 L 71.255 52.848 Z M 62.412 36.214 L 63.634 34.021 C 63.734 33.842 63.704 33.633 63.569 33.558 C 63.434 33.483 63.24 33.567 63.141 33.746 L 61.891 35.99 C 60.716 35.533 59.467 35.301 58.207 35.306 C 56.877 35.306 55.619 35.556 54.497 36.001 L 53.241 33.747 C 53.141 33.568 52.948 33.483 52.813 33.559 C 52.678 33.635 52.648 33.843 52.748 34.022 L 53.976 36.226 C 51.421 37.426 49.7 39.679 49.7 42.261 C 49.7 42.523 49.719 42.782 49.753 43.037 L 66.662 43.037 C 66.697 42.782 66.715 42.524 66.715 42.261 C 66.715 39.671 64.983 37.412 62.414 36.215 L 62.412 36.214 Z M 54.345 40.042 C 53.772 40.042 53.414 39.422 53.7 38.926 C 53.833 38.696 54.079 38.554 54.345 38.554 C 54.917 38.554 55.275 39.174 54.989 39.67 C 54.856 39.9 54.61 40.042 54.345 40.042 Z M 62.109 40.042 C 61.536 40.042 61.178 39.422 61.464 38.926 C 61.597 38.696 61.843 38.554 62.109 38.554 C 62.681 38.554 63.039 39.174 62.753 39.67 C 62.62 39.9 62.374 40.042 62.109 40.042 Z M 49.698 43.776 L 49.698 56.247 L 49.705 56.247 C 49.792 57.3 50.761 58.137 51.935 58.137 L 64.476 58.137 C 65.649 58.137 66.618 57.3 66.706 56.247 L 66.713 56.247 L 66.713 43.776 L 49.699 43.776 L 49.698 43.776 Z M 56.988 58.075 L 56.988 61.933 C 56.988 63.163 56.131 64.17 55.083 64.17 C 54.035 64.17 53.179 63.163 53.179 61.933 L 53.179 58.078 L 56.988 58.075 Z M 63.336 58.073 L 63.336 61.933 C 63.336 63.163 62.479 64.17 61.431 64.17 C 60.383 64.17 59.526 63.163 59.526 61.933 L 59.526 58.073 L 63.336 58.073 Z" style="fill: rgb(178, 183, 190);"/>
</svg>