<?xml version="1.0" encoding="utf-8"?>
<svg viewBox="29.663 54.783 271.868 143.351" xmlns="http://www.w3.org/2000/svg">
  <path class="st0" d="M 56.468 67.776 C 56.468 71.704 55.178 74.879 52.608 77.314 C 50.039 79.748 46.718 80.971 42.656 80.971 C 38.998 80.971 35.924 79.726 33.422 77.213 C 30.908 74.711 29.663 71.569 29.663 67.776 C 29.663 63.984 30.953 60.876 33.523 58.441 C 36.092 55.995 39.278 54.783 43.06 54.783 C 46.852 54.783 50.028 55.995 52.597 58.441 C 55.178 60.876 56.468 63.995 56.468 67.776 Z M 54.033 195.901 L 32.098 195.901 L 32.098 97.219 L 54.022 97.219 L 54.022 195.901 L 54.033 195.901 Z M 200.211 126.055 C 200.211 146.767 194.938 163.688 184.379 176.815 C 173.013 191.031 157.237 198.134 137.075 198.134 C 117.989 198.134 102.83 191.166 91.599 177.219 C 81.164 164.361 75.958 148.114 75.958 128.49 C 75.958 108.461 81.366 91.743 92.205 78.335 C 103.84 63.995 119.403 56.814 138.893 56.814 C 158.113 56.814 173.339 63.714 184.582 77.527 C 195.005 90.251 200.211 106.43 200.211 126.055 Z M 176.862 126.863 C 176.862 113.331 173.821 101.684 167.728 91.934 C 160.693 80.298 150.808 74.475 138.084 74.475 C 124.957 74.475 114.869 80.433 107.835 92.338 C 101.877 102.088 98.892 113.937 98.892 127.883 C 98.892 141.561 101.933 153.264 108.025 163.003 C 115.195 174.65 125.148 180.462 137.871 180.462 C 150.999 180.462 161.086 174.504 168.121 162.599 C 173.956 152.849 176.862 140.944 176.862 126.863 Z M 301.531 157.516 C 301.531 169.163 297.469 178.633 289.345 185.937 C 280.414 193.926 267.959 197.921 251.982 197.921 C 237.227 197.921 225.39 195.082 216.447 189.393 L 221.519 171.127 C 231.134 176.815 241.682 179.654 253.194 179.654 C 261.452 179.654 267.881 177.792 272.481 174.066 C 277.081 170.341 279.382 165.37 279.382 159.143 C 279.382 153.589 277.486 148.922 273.693 145.129 C 269.9 141.337 263.606 137.814 254.809 134.571 C 230.854 125.639 218.871 112.579 218.871 95.378 C 218.871 84.147 223.101 74.946 231.561 67.765 C 240.021 60.595 251.219 57.005 265.166 57.005 C 277.62 57.005 287.976 59.17 296.235 63.501 L 290.77 81.375 C 283.051 77.179 274.321 75.081 264.582 75.081 C 256.863 75.081 250.837 76.977 246.518 80.769 C 242.86 84.158 241.031 88.287 241.031 93.156 C 241.031 98.576 243.129 103.042 247.325 106.554 C 250.983 109.797 257.614 113.32 267.219 117.112 C 279 121.847 287.651 127.401 293.205 133.763 C 298.759 140.125 301.531 148.046 301.531 157.516 Z" style="fill: rgb(178, 183, 190);"/>
</svg>