<?xml version="1.0" encoding="utf-8"?>
<svg viewBox="150.188 60.0114 107.319 94.9326" xmlns="http://www.w3.org/2000/svg">
  <path d="M 188.683 143.08 L 190.999 140.092 L 188.683 143.08 Z M 203.847 75.058 L 201.152 77.696 C 201.856 78.441 202.829 78.862 203.847 78.862 C 204.866 78.862 205.839 78.441 206.543 77.696 L 203.847 75.058 Z M 219.012 143.08 L 221.333 146.067 L 219.012 143.08 Z M 190.999 140.092 C 183.432 134.03 175.161 128.116 168.597 120.604 C 162.163 113.238 157.675 104.651 157.675 93.502 L 150.188 93.502 C 150.188 107.025 155.728 117.337 163.001 125.656 C 170.139 133.827 179.244 140.361 186.362 146.067 L 190.999 140.092 Z M 157.675 93.502 C 157.675 82.591 163.74 73.445 172.021 69.595 C 180.067 65.862 190.879 66.851 201.152 77.696 L 206.543 72.42 C 194.353 59.552 180.207 57.431 168.911 62.676 C 157.85 67.815 150.188 79.745 150.188 93.502 L 157.675 93.502 Z M 186.362 146.067 C 188.923 148.117 191.663 150.303 194.448 151.951 C 197.229 153.605 200.403 154.944 203.847 154.944 L 203.847 147.335 C 202.3 147.335 200.483 146.727 198.227 145.383 C 195.966 144.043 193.625 142.197 190.999 140.092 L 186.362 146.067 Z M 221.333 146.067 C 228.451 140.361 237.556 133.827 244.694 125.656 C 251.961 117.337 257.507 107.025 257.507 93.502 L 250.02 93.502 C 250.02 104.651 245.532 113.238 239.098 120.604 C 232.534 128.116 224.263 134.03 216.696 140.092 L 221.333 146.067 Z M 257.507 93.502 C 257.507 79.745 249.845 67.815 238.784 62.676 C 227.488 57.431 213.336 59.552 201.152 72.42 L 206.543 77.696 C 216.816 66.851 227.627 65.862 235.674 69.595 C 243.955 73.445 250.02 82.591 250.02 93.502 L 257.507 93.502 Z M 216.696 140.092 C 214.07 142.197 211.729 144.043 209.468 145.383 C 207.212 146.727 205.395 147.335 203.847 147.335 L 203.847 154.944 C 207.292 154.944 210.466 153.605 213.247 151.951 C 216.027 150.303 218.772 148.117 221.333 146.067 L 216.696 140.092 Z" style="stroke-width: 5.032; fill: rgb(181, 186, 194);"/>
</svg>