<?xml version="1.0" encoding="utf-8"?>
<svg viewBox="33.9691 50.8574 218.7029 75.1932" xmlns="http://www.w3.org/2000/svg">
  <path d="M 47.99 73.36 C 45.81 73.019 43.879 74.348 42.9 75.214 C 42.718 75.415 42.648 75.617 42.578 75.818 C 39.497 77.314 36.777 78.746 34.665 80.163 C 32.394 81.712 36.091 89.1 39.853 87.162 C 40.602 86.743 42.847 85.486 46.814 83.28 C 51.84 92.597 58.809 107.073 59.718 108.368 C 59.876 108.234 59.537 106.496 59.537 106.496 L 60.495 107.431 L 60.644 106.239 L 61.006 106.063 C 61.006 106.063 60.882 105.116 60.952 104.913 C 61.071 104.352 61.474 104.605 61.474 104.605 L 61.407 102.621 L 61.792 102.49 L 61.711 99.786 C 61.711 99.786 57.922 88.749 53.753 79.465 C 55.611 78.45 57.675 77.281 59.942 76.069 C 63.269 72.887 63.245 69.148 62.613 67.383 C 57.589 69.374 52.564 71.364 47.99 73.36 M 83.963 60.891 C 82.408 58.932 77.617 60.641 75.899 62.269 C 76.436 65.126 78.665 72.726 81.67 80.103 C 79.072 80.763 76.083 81.829 73.592 83.09 C 72.547 79.56 71.349 75.602 70.141 71.916 C 67.314 63.086 62.037 65.983 60.187 67.392 C 59.716 67.721 59.678 68.215 59.793 68.388 C 62.895 73.485 72.365 99.891 73.391 101.717 C 73.564 101.602 73.805 100.928 73.805 100.928 L 73.728 99.512 L 74.256 99.645 L 74.657 98.218 L 75.727 96.874 L 75.701 94.851 L 76.22 94.506 L 76.017 93.188 L 76.501 93.496 C 76.501 93.496 76.123 92.134 75.503 89.948 C 78.038 88.51 81.485 86.479 83.382 85.802 C 83.555 85.687 83.759 85.507 83.897 85.297 C 85.732 89.241 87.716 92.705 89.707 94.99 C 89.801 94.955 89.944 94.905 90.021 94.824 C 90.195 94.708 90.083 93.946 90.083 93.946 L 90.635 93.696 L 90.72 93.184 L 91.394 93.425 L 91.027 90.294 L 91.392 90.271 L 91.741 90.199 L 91.502 88.628 L 91.803 88.574 L 91.823 88.032 C 91.823 88.032 88.481 78.957 86.157 68.396 C 85.241 64.178 84.863 62.067 83.963 60.891 M 100.576 82.014 C 100.507 80.74 100.317 78.669 99.951 76.017 C 102.225 74.857 104.802 73.424 105.097 73.361 C 105.722 72.917 107.314 71.697 107.314 71.697 L 107.482 71.043 L 109.148 70.168 L 108.944 69.697 L 110.334 68.263 L 109.694 68.401 L 111.029 67.186 L 110.971 65.962 C 110.971 65.962 111.156 65.149 111.142 64.843 C 108.483 65.416 103.153 66.979 98.948 68.505 C 98.791 67.302 98.585 66.11 98.359 64.819 C 98.274 64.426 98.238 64.021 98.153 63.627 C 102.277 61.964 107.096 59.945 107.342 59.892 C 107.616 59.73 109.395 58.418 109.395 58.418 L 109.317 57.817 L 110.701 56.591 L 109.716 56.804 C 109.716 56.804 110.541 55.853 110.657 55.674 C 111.148 54.845 111.95 54.261 111.95 54.261 C 111.95 54.261 111.698 53.336 111.673 52.981 C 108.473 53.671 97.188 56.055 92.189 57.959 C 90.188 58.236 88.389 59.449 88.389 59.449 C 90.005 62.397 93.252 77.205 95.216 85.592 C 94.855 85.825 94.542 86.047 94.229 86.269 C 92.153 88.108 96.428 93.832 97.784 92.715 C 106.519 85.678 116.413 80.914 116.906 80.808 C 117.444 80.434 117.541 79.692 118.18 78.833 C 118.878 78.012 120.091 77.184 120.091 77.184 L 118.681 77.333 L 120.349 75.994 L 120.469 75.35 C 120.469 75.35 121.163 74.273 121.138 73.918 C 115.215 74.166 106.673 78.276 100.576 82.014 M 158.225 71.261 C 158.579 69.196 157.723 64.815 155.658 64.563 C 151.277 63.957 141.758 65.566 138.383 65.968 C 138.434 66.17 138.635 66.271 138.987 66.371 C 139.138 66.371 143.42 65.718 146.391 65.87 C 141.858 66.523 139.541 66.976 139.692 67.127 C 140.951 68.738 142.763 70.754 144.828 71.358 C 145.181 71.359 151.376 72.015 155.052 72.268 C 153.087 74.887 149.51 77.656 145.28 77.655 C 139.84 77.653 135.964 73.17 136.115 69.997 C 136.318 63.751 142.968 56.35 150.975 60.431 C 152.587 59.777 153.746 56.302 153.798 54.086 C 153.951 47.64 132.746 49.951 132.087 69.24 C 131.731 80.27 138.831 85.308 145.63 85.31 C 153.588 85.312 159.029 79.068 158.225 71.261 M 183.311 84.296 C 183.322 83.891 183.805 85.084 183.787 84.521 C 179.925 70.24 180.483 61.105 180.581 57.403 C 180.662 55.174 178.909 54.299 177.009 54.064 C 175.926 53.138 173.608 52.636 169.549 52.535 C 166.663 65.292 159.175 77.153 157.809 79.8 C 157.627 80.334 157.58 80.988 157.582 81.65 C 157.629 82.014 158.275 81.449 158.275 81.449 C 158.275 81.449 157.756 83.204 157.825 83.419 C 157.97 84.154 158.645 84.407 158.645 84.407 C 158.645 84.407 158.634 85.833 158.711 85.997 C 158.881 86.226 159.331 85.937 159.458 86.109 C 159.719 86.402 159.637 86.951 159.901 86.888 C 161.568 84.949 163.085 82.987 164.56 80.968 C 168.015 81.029 173.505 81.091 175.709 81.677 C 176.123 81.637 176.493 81.54 176.865 81.443 C 178.255 86.083 179.749 89.364 180.794 89.52 C 180.794 89.52 181.135 89.623 181.606 89.541 C 181.771 89.463 181.978 89.444 182.149 89.317 C 182.313 89.24 182.179 89.117 182.359 88.941 C 182.473 88.856 182.951 88.725 183.088 88.491 C 183.297 88.115 183.522 87.639 183.677 86.949 C 183.722 86.651 183.259 84.645 183.311 84.296 M 168.781 74.574 C 170.273 72.1 171.746 69.417 173.257 66.487 C 173.811 69.575 174.499 72.785 175.268 75.804 C 173.207 75.291 170.93 74.847 168.781 74.574 M 221.893 74.489 C 223.204 70.255 223.982 68.495 223.776 67 C 223.385 64.44 218.374 63.567 216.071 64.147 C 215.978 64.435 215.87 64.771 215.779 65.218 C 213.65 67.389 207.961 73.388 203.023 79.681 C 203.268 75.473 203.535 68.734 203.748 61.5 C 203.787 59.079 201.098 57.737 198.34 57.43 C 196.528 56.317 194.394 56.37 194.394 56.37 C 194.367 56.785 194.26 57.28 194.123 57.87 C 194.123 57.87 194.059 57.903 194.012 57.888 C 194.045 57.951 194.077 58.015 194.061 58.062 C 192.431 65.421 185.17 84.512 182.695 90.223 C 182.983 90.316 183.61 89.353 184.056 89.285 C 184.549 89.232 185.115 90.103 185.115 90.103 L 185.746 89.46 L 187.116 89.477 L 189.972 86.853 L 190.564 87.15 C 190.564 87.15 193.235 81.978 196.319 75.034 C 196.788 80.476 197.129 85.825 197.43 88.832 C 196.471 93.286 201.502 93.107 202.163 92.208 C 205.025 88.58 209.693 82.465 212.976 77.86 C 211.589 85.615 210.644 94.624 211.72 100.156 C 211.879 100.154 211.97 99.707 212.129 99.705 C 212.415 99.639 212.912 99.905 212.912 99.905 L 213.363 98.833 L 214.017 98.938 L 214.864 97.623 L 215.441 96.487 L 215.951 96.545 L 216.987 94.974 C 216.987 94.974 218.623 85.13 221.893 74.489 M 226.06 95.326 C 226.79 94.281 227.916 92.531 229.258 90.215 C 231.765 90.699 234.677 91.156 234.949 91.288 C 235.716 91.322 237.721 91.34 237.721 91.34 L 238.255 90.928 L 240.107 91.264 L 240.235 90.766 L 242.214 90.491 L 241.625 90.207 L 243.425 90.07 L 244.132 89.069 C 244.132 89.069 244.778 88.542 244.956 88.292 C 242.506 87.108 237.343 85.061 233.089 83.676 C 233.707 82.632 234.277 81.566 234.893 80.408 C 235.068 80.045 235.288 79.705 235.464 79.342 C 239.738 80.569 244.779 81.942 245.006 82.051 C 245.322 82.093 247.531 82.153 247.531 82.153 L 247.838 81.631 L 249.684 81.516 L 248.778 81.078 C 248.778 81.078 250.013 80.835 250.215 80.765 C 251.111 80.416 252.103 80.447 252.103 80.447 C 252.103 80.447 252.474 79.564 252.672 79.268 C 249.725 77.843 239.363 72.78 234.251 71.204 C 232.502 70.192 230.338 70.041 230.338 70.041 C 229.797 73.359 223.246 87.03 219.634 94.85 C 219.206 94.81 218.823 94.794 218.44 94.776 C 215.671 94.949 215.519 102.091 217.276 102.045 C 228.491 101.872 239.222 104.205 239.676 104.425 C 240.329 104.46 240.863 103.935 241.895 103.65 C 242.951 103.434 244.416 103.527 244.416 103.527 L 243.212 102.777 L 245.352 102.748 L 245.842 102.314 C 245.842 102.314 247.053 101.892 247.252 101.597 C 242.43 98.148 233.167 96.132 226.06 95.326" style="fill: rgb(181, 186, 193);" transform="matrix(1, 0, 0, 1, 7.105427357601002e-15, 3.552713678800501e-15)"/>
  <path d="M 96.997 89.152 C 95.009 91.141 96.782 96.356 98.608 97.055 C 101.992 96.248 105.215 95.926 108.277 96.033 C 108.814 100.657 109.083 108.72 109.244 115.333 C 105.484 114.365 102.905 112.43 102.905 111.086 C 102.905 109.258 102.046 111.032 102.046 111.032 C 102.046 118.505 105.913 121.622 109.459 122.859 C 109.512 124.472 109.566 125.601 109.62 125.977 C 109.781 125.977 110.103 125.332 110.103 125.332 L 110.694 125.493 L 111.231 124.203 L 112.198 124.257 L 112.52 123.558 C 113.111 123.612 113.595 123.665 113.971 123.665 C 118.913 123.665 134.329 121.73 134.436 108.72 C 134.544 84.852 99.038 87.109 96.997 89.152 Z M 113.917 115.924 C 113.81 115.924 113.702 115.87 113.648 115.87 L 114.132 109.527 C 114.132 109.527 114.132 112.914 114.132 115.87 C 114.078 115.87 113.971 115.924 113.917 115.924 Z M 129.978 107 C 129.709 110.817 121.759 115.333 115.099 115.87 C 115.314 111.462 115.69 102.915 115.743 97.001 C 124.445 99.098 130.193 104.043 129.978 107 Z M 141.195 115.44 C 141.41 114.096 141.678 111.892 141.893 109.043 C 144.525 108.344 147.533 107.43 147.856 107.43 C 148.608 107.108 150.541 106.194 150.541 106.194 L 150.864 105.549 L 152.797 105.011 L 152.69 104.474 L 154.463 103.291 L 153.764 103.291 L 155.429 102.323 L 155.644 101.033 C 155.644 101.033 156.02 100.227 156.074 99.904 C 153.173 99.904 147.265 100.334 142.538 100.979 C 142.645 99.689 142.699 98.399 142.753 97.001 C 142.753 96.571 142.806 96.141 142.806 95.711 C 147.48 94.904 152.959 93.883 153.227 93.883 C 153.549 93.776 155.698 92.808 155.698 92.808 L 155.752 92.163 L 157.471 91.195 L 156.396 91.195 C 156.396 91.195 157.471 90.389 157.632 90.227 C 158.33 89.475 159.297 89.045 159.297 89.045 C 159.297 89.045 159.243 88.023 159.297 87.647 C 155.805 87.647 143.505 87.593 137.865 88.453 C 135.716 88.292 133.567 89.152 133.567 89.152 C 134.588 92.593 134.642 108.774 134.803 117.967 C 134.373 118.128 133.997 118.289 133.621 118.451 C 131.043 119.902 134.212 126.837 135.877 125.977 C 146.566 120.601 157.954 117.859 158.491 117.859 C 159.136 117.591 159.404 116.838 160.264 116.085 C 161.177 115.387 162.627 114.795 162.627 114.795 L 161.123 114.634 L 163.164 113.612 L 163.433 112.967 C 163.433 112.967 164.4 112 164.454 111.623 C 158.223 110.548 148.393 112.914 141.195 115.44 Z M 186.904 93.937 C 186.851 93.776 186.797 93.614 186.743 93.453 C 185.83 91.088 184.38 88.615 184.38 88.615 C 184.38 88.615 183.735 88.83 183.413 88.507 C 183.252 88.292 182.822 86.572 182.661 86.411 C 182.554 86.303 182.339 87.109 182.231 87.002 C 182.07 86.894 182.016 85.873 181.855 85.766 C 180.942 89.099 179.76 101.624 179.384 111.301 C 177.021 106.301 172.992 97.646 170.306 90.389 C 169.017 87.002 164.881 86.787 161.927 88.023 C 160.638 88.185 159.725 88.507 159.725 88.507 C 161.014 92.969 160.638 123.612 161.014 125.816 C 161.282 125.439 161.443 125.278 161.658 125.171 C 161.981 125.009 162.625 125.009 162.625 125.009 L 163.377 123.181 L 164.022 123.719 L 164.666 121.945 L 165.472 121.515 L 166.815 118.881 L 167.137 118.988 C 167.137 118.988 167.889 110.763 168.48 102.054 C 171.864 108.613 175.732 116.247 179.492 121.784 C 179.868 123.988 180.62 124.848 182.07 125.009 C 184.058 125.171 187.442 124.257 187.871 123.074 C 188.355 121.515 186.152 119.902 186.904 93.937 Z" style="fill: rgb(181, 186, 193);" transform="matrix(1, 0, 0, 1, 7.105427357601002e-15, 3.552713678800501e-15)"/>
</svg>