<?xml version="1.0" encoding="utf-8"?>

 <svg version="1.0" xmlns="http://www.w3.org/2000/svg"  width="300.000000pt" height="36.000000pt" viewBox="0 0 300.000000 36.000000"  preserveAspectRatio="xMidYMid meet">  <g transform="translate(0.000000,36.000000) scale(0.100000,-0.100000)" fill="#fcfcfc" stroke="none"> <path d="M70 285 c0 -24 3 -26 37 -23 l38 3 -4 -107 -3 -108 26 0 26 0 0 110 0 110 40 -6 c38 -6 40 -5 40 20 l0 26 -100 0 -100 0 0 -25z"/> <path d="M310 180 l0 -130 25 0 25 0 0 130 0 130 -25 0 -25 0 0 -130z"/> <path d="M490 260 l0 -50 -55 0 c-52 0 -55 -1 -55 -25 0 -24 3 -25 55 -25 l55 0 0 -55 c0 -51 2 -55 24 -55 l24 0 0 130 c-1 130 -1 130 -24 130 -22 0 -24 -4 -24 -50z"/> <path d="M590 285 c0 -25 0 -25 95 -25 95 0 95 0 95 25 0 25 0 25 -95 25 -95 0 -95 0 -95 -25z"/> <path d="M1014 294 c-86 -42 -86 -193 1 -230 19 -8 46 -14 59 -14 29 0 76 19 76 32 0 4 4 8 9 8 5 0 7 -9 4 -20 -4 -16 0 -20 21 -20 26 0 26 1 26 70 l0 70 -70 0 c-64 0 -70 -2 -70 -21 0 -19 5 -21 45 -17 52 4 59 -10 19 -41 -34 -27 -74 -27 -108 0 -21 17 -26 29 -26 65 0 48 22 79 63 89 28 7 76 -10 83 -30 4 -9 18 -15 35 -15 l30 0 -16 31 c-28 53 -117 75 -181 43z"/> <path d="M1325 298 c-2 -7 -23 -64 -45 -127 -22 -63 -40 -116 -40 -118 0 -3 12 -3 26 -1 24 3 29 12 57 101 17 53 33 97 36 97 4 0 22 -45 41 -100 33 -94 36 -100 62 -100 16 0 28 1 28 3 0 1 -22 58 -49 127 -48 119 -51 125 -81 128 -18 2 -32 -2 -35 -10z"/> <path d="M1532 302 c2 -4 28 -53 58 -110 37 -70 60 -102 72 -102 11 0 29 20 47 53 50 88 50 88 44 -6 l-6 -87 27 0 26 0 0 130 c0 128 0 130 -22 130 -18 0 -32 -17 -66 -80 -24 -44 -45 -80 -47 -80 -2 0 -23 36 -47 80 -35 65 -47 80 -66 80 -13 0 -22 -3 -20 -8z"/> <path d="M1860 285 c0 -25 0 -25 95 -25 95 0 95 0 95 25 0 25 0 25 -95 25 -95 0 -95 0 -95 -25z"/> <path d="M2220 180 l0 -130 53 0 c108 0 150 28 162 107 16 99 -38 153 -152 153 l-63 0 0 -130z m145 55 c52 -51 15 -135 -60 -135 l-35 0 0 80 0 80 35 0 c25 0 44 -8 60 -25z"/> <path d="M2489 308 c0 -2 -2 -13 -3 -25 -3 -23 -1 -23 125 -23 l127 0 72 -105 c58 -85 76 -105 96 -105 l24 0 0 130 0 130 -25 0 c-25 0 -25 -1 -25 -92 l0 -92 -62 92 -63 92 -132 0 c-73 0 -133 -1 -134 -2z"/> <path d="M1530 143 c0 -93 0 -93 25 -93 23 0 25 3 25 48 -1 30 -10 63 -25 92 l-24 45 -1 -92z"/> <path d="M2720 135 c0 -84 0 -85 25 -85 23 0 25 3 25 51 0 35 -7 63 -21 85 -11 19 -23 34 -25 34 -2 0 -4 -38 -4 -85z"/> <path d="M590 180 c0 -19 7 -20 95 -20 88 0 95 1 95 20 0 19 -7 20 -95 20 -88 0 -95 -1 -95 -20z"/> <path d="M1860 180 c0 -19 7 -20 95 -20 88 0 95 1 95 20 0 19 -7 20 -95 20 -88 0 -95 -1 -95 -20z"/> <path d="M2484 180 c0 -19 7 -20 93 -20 86 0 93 1 93 20 0 19 -7 20 -93 20 -86 0 -93 -1 -93 -20z"/> <path d="M590 75 c0 -25 0 -25 95 -25 95 0 95 0 95 25 0 25 0 25 -95 25 -95 0 -95 0 -95 -25z"/> <path d="M1860 75 c0 -25 0 -25 95 -25 95 0 95 0 95 25 0 25 0 25 -95 25 -95 0 -95 0 -95 -25z"/> <path d="M2485 78 c2 -22 6 -23 93 -26 l92 -3 0 26 c0 25 0 25 -93 25 -91 0 -94 -1 -92 -22z"/> </g> </svg> 