<?xml version="1.0" encoding="utf-8"?>
<svg viewBox="61.253 24.614 173.994 215.444" xmlns="http://www.w3.org/2000/svg">
  <path d="M 147.05 76.739 C 158.183 76.739 167.949 72.093 176.349 62.8 C 184.748 53.507 188.948 42.701 188.948 30.382 C 188.948 29.029 188.848 27.106 188.648 24.614 C 187.182 24.827 186.082 25.005 185.348 25.148 C 175.082 26.715 166.049 32.091 158.249 41.277 C 150.449 50.463 146.55 60.29 146.55 70.758 C 146.55 71.968 146.716 73.962 147.05 76.739 Z M 186.948 240.058 C 194.881 240.058 203.647 234.255 213.248 222.647 C 222.847 211.04 230.18 197.403 235.247 181.737 C 216.381 171.341 206.948 156.423 206.948 136.982 C 206.948 120.747 214.581 106.861 229.847 95.325 C 219.247 81.154 205.248 74.069 187.849 74.069 C 180.515 74.069 173.815 75.243 167.749 77.594 L 163.949 79.089 L 158.849 81.225 C 155.516 82.578 152.483 83.255 149.75 83.255 C 147.616 83.255 144.817 82.471 141.35 80.905 L 137.45 79.196 L 133.75 77.594 C 128.35 75.172 122.551 73.962 116.351 73.962 C 99.752 73.962 86.419 79.944 76.353 91.907 C 66.286 103.87 61.253 119.643 61.253 139.225 C 61.253 166.783 69.319 192.241 85.452 215.598 C 96.652 231.904 106.885 240.058 116.151 240.058 C 120.084 240.058 123.984 239.239 127.851 237.601 L 132.75 235.464 L 136.65 233.969 C 142.117 231.904 147.15 230.872 151.749 230.872 C 156.616 230.872 162.216 232.189 168.549 234.824 L 171.649 236.106 C 178.115 238.74 183.215 240.058 186.948 240.058 Z" style="fill: rgb(178, 183, 190);"/>
</svg>