<?xml version="1.0" encoding="utf-8"?>
<svg viewBox="320.1454 144.5735 63.6149 64.0854" xmlns="http://www.w3.org/2000/svg">
  <g fill-rule="evenodd" clip-rule="evenodd" transform="matrix(1.4429359436035156, 0, 0, 1.4429359436035156, 771.4860229492188, 154.15231323242188)">
    <path d="M -301.388 4.308 L -294.632 4.308 L -285.277 19.436 L -285.282 4.308 L -278.577 4.308 L -278.577 26.006 L -285.273 26.006 L -294.675 10.877 L -294.675 26.006 L -301.391 26.006 L -301.388 4.308 Z M -274.841 11.578 L -274.841 26.006 L -274.841 11.578 Z M -274.855 4.304 L -274.855 8.74 L -274.855 4.304 Z" style="fill: rgb(178, 183, 190);"/>
    <g fill-rule="evenodd" clip-rule="evenodd" transform="matrix(1, 0, 0, 1, -432.464691, 17.773979)">
      <g fill-rule="evenodd" clip-rule="evenodd" transform="matrix(1, 0, 0, 1, 146.606445, 45.15271)">
        <path d="M 11.577 -63.998 C 8.012 -67.576 5.165 -69.58 0.114 -69.565 L -7.896 -69.565 C -18.394 -69.565 -26.935 -61.039 -26.935 -50.557 L -26.935 -44.158 C -26.935 -39.082 -24.955 -34.308 -21.359 -30.719 C -17.794 -27.142 -12.947 -25.137 -7.897 -25.152 L 0.113 -25.152 C 5.164 -25.138 9.293 -27.463 12.858 -31.04 C 16.439 -34.594 17.165 -39.113 17.152 -44.158 L 17.152 -50.557 C 17.166 -55.603 15.158 -60.443 11.577 -63.998 Z M 14.958 -44.154 C 14.958 -35.023 9.503 -27.593 0.341 -27.593 L -8.123 -27.593 C -12.561 -27.593 -16.733 -29.316 -19.872 -32.444 C -23.011 -35.572 -24.739 -39.73 -24.739 -44.154 L -24.739 -50.562 C -24.739 -54.985 -23.01 -59.145 -19.872 -62.272 C -16.758 -65.39 -12.529 -67.136 -8.123 -67.123 L 0.34 -67.123 C 4.778 -67.123 6.951 -65.4 10.09 -62.272 C 13.215 -59.178 14.968 -54.96 14.957 -50.562 L 14.957 -44.154 L 14.958 -44.154 Z" style="fill: rgb(178, 183, 190);"/>
      </g>
    </g>
  </g>
</svg>