<?xml version="1.0" encoding="utf-8"?>
<svg viewBox="14.0019 10.284 40.0233 31" xmlns="http://www.w3.org/2000/svg">
  <path d="M 14.812 32.884 C 13.312 33.884 13.812 35.784 17.012 36.684 C 20.312 37.784 23.912 38.084 27.412 37.484 C 27.612 37.484 27.812 37.384 27.912 37.384 L 27.912 33.984 L 24.512 35.084 C 23.212 35.484 21.912 35.584 20.612 35.284 C 19.612 34.984 19.812 34.384 21.012 33.884 L 27.912 31.484 L 27.912 27.784 L 18.312 31.084 C 17.112 31.484 15.912 32.084 14.812 32.884 Z M 38.012 17.884 L 38.012 27.584 C 42.112 29.584 45.312 27.584 45.312 22.384 C 45.312 17.084 43.412 14.684 37.912 12.784 C 35.012 11.784 32.012 10.884 29.012 10.284 L 29.012 39.184 L 36.012 41.284 L 36.012 16.984 C 36.012 15.884 36.012 15.084 36.812 15.384 C 37.912 15.684 38.012 16.784 38.012 17.884 Z M 51.012 30.584 C 48.112 29.584 45.012 29.184 42.012 29.484 C 40.412 29.584 38.912 29.984 37.512 30.484 L 37.212 30.584 L 37.212 34.484 L 43.712 32.084 C 45.012 31.684 46.312 31.584 47.612 31.884 C 48.612 32.184 48.412 32.784 47.212 33.284 L 37.212 36.984 L 37.212 40.784 L 51.012 35.684 C 52.012 35.284 52.912 34.784 53.712 33.984 C 54.412 32.984 54.112 31.584 51.012 30.584 Z" style="fill: rgb(178, 183, 190);"/>
</svg>