<?xml version="1.0" encoding="utf-8"?>
<svg viewBox="56.0108 52.579 217.9994 218.025" xmlns="http://www.w3.org/2000/svg">
  <path d="M 104.571 71.098 C 105.13 70.563 105.715 70.055 106.351 69.597 C 123.445 58.506 143.16 52.579 165.036 52.579 C 185.487 52.579 204.667 58.251 220.998 68.07 C 222.194 68.757 225.45 70.996 227.103 73.005 C 211.307 55.606 164.909 92.974 164.909 92.974 C 148.883 80.586 134.104 72.166 123.14 69.139 C 113.932 66.621 107.598 68.732 104.571 71.098 Z M 244.96 87.53 C 244.503 86.996 243.968 86.513 243.485 85.953 C 239.517 81.578 234.607 80.535 230.181 80.789 C 226.137 82.087 207.542 88.776 184.623 110.424 C 184.623 110.424 210.416 135.505 226.239 161.172 C 242.035 186.813 251.473 206.985 245.673 234.941 C 263.937 214.87 274.061 188.721 274.01 161.579 C 274.01 133.013 263.021 106.965 244.96 87.53 Z M 205.583 172.11 C 195.535 160.866 185.131 149.928 174.422 139.321 C 171.421 136.345 168.241 133.216 164.883 129.985 C 164.883 129.985 159.846 135.022 153.334 141.636 L 153.334 141.61 C 144.965 150.081 134.104 161.095 128.075 167.556 C 117.34 179.004 86.586 214.947 84.882 235.119 C 84.882 235.119 78.039 219.144 93.048 182.26 C 102.841 158.119 132.476 121.947 144.838 110.144 C 144.838 110.144 133.519 97.731 119.35 89.133 L 119.248 89.107 C 119.248 89.107 119.07 88.98 118.867 88.853 C 112.049 84.783 104.571 81.629 97.423 81.196 C 90.122 81.73 85.467 87.098 85.467 87.098 C 66.516 107.219 55.96 133.903 56.011 161.604 C 56.011 221.815 104.8 270.604 165.036 270.604 C 196.985 270.604 225.704 256.842 245.673 234.915 C 245.673 234.89 243.383 220.518 228.731 199.888 C 225.246 195.08 212.68 180.021 205.583 172.11 Z" style="fill: rgb(178, 183, 190);"/>
</svg>